<svg width="2320" height="655" viewBox="0 0 2320 655" fill="none" xmlns="http://www.w3.org/2000/svg">
<path d="M166 422.4C122 452.6 36 450 32.4 392.4C31.4 375 37.4 361.2 48 351.6C62.2 338.8 85.4 333.8 107.6 335.2C133.2 337.2 149.6 340.4 166 352.8L173 341.6C167.8 339 140.8 329.2 100.8 329.2C60.6 329.2 31.2 340.8 18 360.4C4.2 380.4 9.2 408.2 18.6 421C48.8 461.6 137.6 449.6 173 432.6L166 422.4ZM265.814 329.2C221.814 329.2 184.214 345.4 184.214 388.6C184.214 433.6 224.214 448.4 265.814 448.4C307.614 448.4 347.614 433.6 347.614 388.6C347.614 345.4 310.014 329.2 265.814 329.2ZM307.014 428C295.814 437.8 280.614 442.6 265.814 442.6C251.214 442.6 236.014 437.8 224.814 428C213.814 418.4 206.614 403.8 206.814 388.8C206.614 373.8 212.814 358.2 224.014 348.6C235.214 338.8 251.214 334.8 265.814 334.8C280.614 334.8 296.614 338.8 307.814 348.4C319.014 358.2 325.014 373.8 325.014 388.8C325.014 403.8 318.014 418.4 307.014 428ZM516.661 329H353.261V341.6H472.861L353.261 448H516.661V435.4H397.061L516.661 329ZM690.256 329C645.856 336.6 620.856 370.2 608.456 388.4C596.256 370.2 571.256 336.6 526.856 329V341.6C556.856 343 580.856 364.6 597.456 384V448H619.656V384C636.256 364.6 660.256 343 690.256 341.6V329Z" fill="#927B6D"/>
<path d="M935.716 338V373.2H800.916V329.2H794.316V448H800.916V379.8H935.716V448H957.716V329L935.716 338ZM1065.03 329.2C1021.03 329.2 983.433 345.4 983.433 388.6C983.433 433.6 1023.43 448.4 1065.03 448.4C1106.83 448.4 1146.83 433.6 1146.83 388.6C1146.83 345.4 1109.23 329.2 1065.03 329.2ZM1106.23 428C1095.03 437.8 1079.83 442.6 1065.03 442.6C1050.43 442.6 1035.23 437.8 1024.03 428C1013.03 418.4 1005.83 403.8 1006.03 388.8C1005.83 373.8 1012.03 358.2 1023.23 348.6C1034.43 338.8 1050.43 334.8 1065.03 334.8C1079.83 334.8 1095.83 338.8 1107.03 348.4C1118.23 358.2 1124.23 373.8 1124.23 388.8C1124.23 403.8 1117.23 418.4 1106.23 428ZM1314.24 329.2C1277.44 334.8 1256.84 359.8 1246.64 373.4C1236.44 359.8 1216.24 335 1179.44 329.4H1172.84V448.2H1179.44V341.8C1210.04 343.4 1233.24 364.6 1246.64 380C1260.04 364.6 1283.44 343.2 1314.24 341.8V448.2H1336.24V329.2H1314.24ZM1522.54 341.6V329.2H1368.14V448H1522.54V435.2H1390.14V379.8H1485.34V373.2H1390.14V341.6H1522.54Z" fill="#927B6D"/>
<path d="M441.689 523.057C441.689 523.467 441.348 523.945 440.664 524.492C438.796 523.398 437.178 522.874 435.811 522.92C434.626 522.92 432.917 523.216 430.684 523.809C427.63 524.583 423.893 526.885 419.473 530.713C419.701 530.986 420.111 531.488 420.703 532.217C425.033 537.64 427.197 543.451 427.197 549.648C427.197 559.173 422.686 566.829 413.662 572.617C410.335 574.759 407.441 575.83 404.98 575.83C401.289 575.83 399.443 574.782 399.443 572.686C399.443 572.458 399.535 572.253 399.717 572.07H400.195C401.654 573.118 403.044 573.643 404.365 573.643C406.917 573.643 409.378 572.321 411.748 569.678C412.568 568.766 413.753 567.376 415.303 565.508C420.316 558.854 422.822 551.768 422.822 544.248C422.822 538.916 421.227 534.928 418.037 532.285C415.166 535.384 412.386 539.372 409.697 544.248C408.33 546.755 403.727 556.234 395.889 572.686L389.189 586.768C386.956 591.507 384.313 595.996 381.26 600.234C377.249 605.84 372.396 610.785 366.699 615.068C359.863 620.218 353.62 622.793 347.969 622.793C341.361 622.793 335.96 620.286 331.768 615.273C327.803 610.579 325.82 604.86 325.82 598.115C325.82 585.446 330.879 574.577 340.996 565.508C341.27 565.28 343.525 563.776 347.764 560.996C347.627 556.986 347.673 554.229 347.9 552.725C348.63 547.894 350.384 543.359 353.164 539.121C361.23 526.862 374.128 520.732 391.855 520.732C397.507 520.732 403.363 521.849 409.424 524.082C411.383 524.811 414.209 526.611 417.9 529.482C422.321 526.338 425.146 524.424 426.377 523.74C430.205 521.598 433.691 520.527 436.836 520.527C440.072 520.527 441.689 521.37 441.689 523.057ZM416.328 530.713C409.766 525.7 401.38 523.193 391.172 523.193C380.872 523.193 371.598 526.794 363.35 533.994C354.919 541.331 350.475 549.147 350.02 557.441L349.883 560.176C352.663 559.128 354.873 558.604 356.514 558.604C361.299 558.604 365.332 560.837 368.613 565.303C369.935 567.08 370.892 569.473 371.484 572.48L375.381 569.609C376.885 568.47 378.047 567.467 378.867 566.602C381.191 564.004 383.265 560.518 385.088 556.143C386.956 551.722 387.891 547.848 387.891 544.521C387.891 540.557 386.615 538.574 384.062 538.574C381.921 538.574 380.85 539.44 380.85 541.172C380.85 542.448 380.622 543.086 380.166 543.086C379.619 543.086 379.346 542.676 379.346 541.855C379.346 540.488 379.824 539.258 380.781 538.164C381.784 537.07 382.969 536.523 384.336 536.523C386.296 536.523 387.868 537.549 389.053 539.6C390.055 541.331 390.557 543.245 390.557 545.342C390.557 553.955 387.093 561.68 380.166 568.516C378.936 569.746 376.087 571.842 371.621 574.805C371.53 578.086 371.165 580.98 370.527 583.486C368.613 591.006 365.013 597.568 359.727 603.174C358.542 604.45 356.787 605.703 354.463 606.934C351.956 608.301 349.928 608.984 348.379 608.984C343.639 608.984 341.27 607.367 341.27 604.131C341.27 603.812 341.475 603.584 341.885 603.447C343.298 605.908 345.234 607.139 347.695 607.139C351.888 607.139 355.99 604.564 360 599.414C363.008 595.586 365.469 591.12 367.383 586.016C368.066 584.238 368.841 580.798 369.707 575.693C366.973 576.377 365.127 576.719 364.17 576.719C359.613 576.719 355.557 574.645 352.002 570.498C350.316 568.538 349.085 566.237 348.311 563.594C345.029 565.371 341.93 568.424 339.014 572.754C332.451 582.507 329.17 591.689 329.17 600.303C329.17 605.908 330.765 610.579 333.955 614.316C337.327 618.327 341.748 620.332 347.217 620.332C359.02 620.332 369.046 612.493 377.295 596.816C380.713 589.889 386.956 577.448 396.025 559.492C397.438 556.712 401.676 549.967 408.74 539.258C410.472 537.389 413.001 534.541 416.328 530.713ZM369.639 573.369C369.229 569.86 367.861 566.898 365.537 564.482C363.213 562.021 360.319 560.768 356.855 560.723C355.124 560.723 352.845 561.315 350.02 562.5C351.068 565.827 352.777 568.584 355.146 570.771C357.79 573.232 360.729 574.463 363.965 574.463C365.651 574.463 367.542 574.098 369.639 573.369ZM420.156 607.207C420.156 608.574 419.746 609.964 418.926 611.377C418.014 612.972 416.921 613.77 415.645 613.77C413.32 613.77 412.158 612.288 412.158 609.326C412.158 607.959 412.568 606.683 413.389 605.498C414.3 604.131 415.394 603.447 416.67 603.447C417.536 603.447 418.333 603.857 419.062 604.678C419.792 605.498 420.156 606.341 420.156 607.207ZM517.227 520.117C517.227 522.487 515.176 525.951 511.074 530.508C507.747 534.199 504.557 537.549 501.504 540.557C500.911 541.149 499.613 542.676 497.607 545.137C497.334 546.139 497.197 546.982 497.197 547.666C497.243 556.963 497.22 562.318 497.129 563.73C496.992 565.964 496.764 568.766 496.445 572.139C495.078 586.768 490.544 598.389 482.842 607.002C480.062 610.101 476.416 612.767 471.904 615C467.165 617.37 462.812 618.555 458.848 618.555C452.376 618.555 446.657 616.048 441.689 611.035C439.958 609.303 439.046 608.415 438.955 608.369C438.545 608.369 437.861 609.235 436.904 610.967C432.985 618.167 431.025 624.798 431.025 630.859C431.025 632.09 431.139 633.206 431.367 634.209C431.549 634.71 431.755 635.28 431.982 635.918C431.982 637.057 431.458 637.627 430.41 637.627C428.997 637.627 428.291 636.237 428.291 633.457C428.291 627.76 429.704 621.859 432.529 615.752C432.848 615.114 433.737 613.223 435.195 610.078C436.654 606.888 437.383 605.179 437.383 604.951C437.383 605.452 436.904 603.971 435.947 600.508C434.899 596.725 434.375 593.262 434.375 590.117C434.375 581.823 437.725 573.643 444.424 565.576C451.396 557.145 458.939 552.93 467.051 552.93C471.927 552.93 475.96 554.821 479.15 558.604C481.11 557.008 483.206 555.163 485.439 553.066C487.718 550.97 491.045 547.826 495.42 543.633C495.602 542.721 495.99 541.012 496.582 538.506C497.721 533.538 499.544 528.867 502.051 524.492C505.514 518.568 509.206 515.605 513.125 515.605C515.859 515.605 517.227 517.109 517.227 520.117ZM513.535 521.621C513.535 519.889 512.76 519.023 511.211 519.023C506.927 519.023 503.145 523.945 499.863 533.789C499.043 536.25 498.633 537.959 498.633 538.916C498.633 539.235 498.656 539.44 498.701 539.531H499.385C501.299 537.936 504.99 534.04 510.459 527.842C512.51 525.518 513.535 523.444 513.535 521.621ZM494.463 549.238V548.691C494.417 548.327 494.395 548.031 494.395 547.803C491.296 549.899 486.556 554.229 480.176 560.791C480.176 559.88 480.654 561.361 481.611 565.234C482.158 567.467 482.432 569.974 482.432 572.754C482.432 578.861 480.426 585.173 476.416 591.689C471.904 599.027 466.777 602.695 461.035 602.695C457.389 602.695 455.566 601.465 455.566 599.004C455.566 597.91 455.885 597.363 456.523 597.363C456.25 597.363 456.09 597.409 456.045 597.5C456.227 597.728 456.865 598.07 457.959 598.525C459.782 599.346 461.035 599.756 461.719 599.756C466.914 599.756 471.471 596.087 475.391 588.75C478.763 582.461 480.449 576.445 480.449 570.703C480.449 565.28 479.766 562.568 478.398 562.568C469.74 569.997 462.493 576.969 456.66 583.486C454.473 585.902 451.579 589.411 447.979 594.014C443.239 600.029 440.869 603.538 440.869 604.541C440.869 605.68 441.849 607.253 443.809 609.258C445.404 610.898 446.908 612.152 448.32 613.018C451.1 614.749 454.473 615.615 458.438 615.615C465.456 615.615 471.973 611.969 477.988 604.678C482.865 598.799 486.488 591.917 488.857 584.033C490.452 578.747 492.184 568.219 494.053 552.451C494.281 550.446 494.417 549.375 494.463 549.238ZM476.826 560.312C476.826 558.763 475.596 557.533 473.135 556.621C471.266 555.938 469.398 555.596 467.529 555.596C459.782 555.596 452.786 559.834 446.543 568.311C440.755 576.149 437.861 584.079 437.861 592.1C437.861 597.842 438.477 600.713 439.707 600.713C442.578 600.713 445.153 599.277 447.432 596.406C448.48 595.085 450.257 591.963 452.764 587.041C454.906 582.848 456.842 579.886 458.574 578.154C462.402 574.326 466.527 570.339 470.947 566.191C474.867 562.5 476.826 560.54 476.826 560.312ZM517.5 607.207C517.5 608.574 517.09 609.964 516.27 611.377C515.358 612.972 514.264 613.77 512.988 613.77C510.664 613.77 509.502 612.288 509.502 609.326C509.502 607.959 509.912 606.683 510.732 605.498C511.644 604.131 512.738 603.447 514.014 603.447C514.88 603.447 515.677 603.857 516.406 604.678C517.135 605.498 517.5 606.341 517.5 607.207ZM603.086 538.779C595.566 552.77 590.075 562.751 586.611 568.721C588.07 569.04 589.642 569.199 591.328 569.199C593.424 569.199 594.837 569.062 595.566 568.789C596.842 568.288 597.526 568.037 597.617 568.037C598.164 568.037 598.438 568.333 598.438 568.926C598.438 570.566 595.544 571.387 589.756 571.387C588.525 571.387 587.113 571.25 585.518 570.977C584.15 573.392 580.117 580.57 573.418 592.51C572.643 593.831 571.276 596.247 569.316 599.756C567.767 602.536 566.992 605.065 566.992 607.344C566.992 611.126 568.405 613.018 571.23 613.018C574.329 613.018 578.089 610.488 582.51 605.43C582.874 605.02 585.632 601.715 590.781 595.518C590.964 595.335 592.376 593.604 595.02 590.322C595.293 590.459 595.726 590.732 596.318 591.143C590.986 598.206 585.449 604.655 579.707 610.488C576.836 613.405 574.01 614.863 571.23 614.863C566.719 614.863 564.463 611.81 564.463 605.703C564.463 600.736 567.083 593.33 572.324 583.486C573.236 581.755 575.628 577.539 579.502 570.84C577.223 570.293 575.446 570.02 574.17 570.02C573.851 570.02 573.372 570.065 572.734 570.156C572.096 570.202 571.618 570.225 571.299 570.225C570.433 570.225 570 569.974 570 569.473C570 568.014 571.344 567.376 574.033 567.559L580.801 568.037C584.219 562.067 589.688 552.725 597.207 540.01C600.306 539.235 602.015 538.825 602.334 538.779H603.086ZM635.078 590.254C634.258 591.576 632.617 593.49 630.156 595.996C627.148 599.095 624.027 600.645 620.791 600.645C619.014 600.645 617.601 600.28 616.553 599.551L614.707 597.979C613.887 599.255 612.611 601.077 610.879 603.447C608.464 606.774 606.504 609.189 605 610.693C602.357 613.337 599.85 614.658 597.48 614.658C595.156 614.658 593.379 613.451 592.148 611.035C591.146 609.076 590.645 606.82 590.645 604.268C590.645 598.617 592.559 592.327 596.387 585.4C600.033 578.747 604.225 573.665 608.965 570.156C612.155 567.786 614.912 566.602 617.236 566.602C621.11 566.602 623.047 569.199 623.047 574.395C623.047 576.673 622.318 580.046 620.859 584.512C619.583 588.431 618.285 591.576 616.963 593.945C616.462 594.857 616.211 595.586 616.211 596.133C616.211 596.816 616.803 597.477 617.988 598.115C619.036 598.708 619.948 599.004 620.723 599.004C623.275 599.004 625.713 597.956 628.037 595.859C628.447 595.495 630.407 593.353 633.916 589.434C634.144 589.57 634.531 589.844 635.078 590.254ZM621.133 574.6C621.133 570.771 619.971 568.857 617.646 568.857C613.955 568.857 609.102 574.212 603.086 584.922C597.344 595.176 594.473 602.673 594.473 607.412C594.473 610.967 595.612 612.744 597.891 612.744C599.987 612.744 602.949 610.397 606.777 605.703C609.967 601.875 612.246 598.548 613.613 595.723C613.203 594.219 612.998 592.806 612.998 591.484C612.998 588.158 613.636 585.811 614.912 584.443C615.778 583.486 616.416 583.008 616.826 583.008C617.191 583.008 617.874 583.577 618.877 584.717C620.381 580.205 621.133 576.833 621.133 574.6ZM714.785 530.029C714.785 533.994 712.712 539.668 708.564 547.051C706.331 551.061 703.643 555.14 700.498 559.287C699.222 560.973 695.462 565.189 689.219 571.934C687.988 573.301 685.618 575.853 682.109 579.59C680.697 581.003 677.985 583.805 673.975 587.998C673.61 588.545 672.904 590.072 671.855 592.578C668.757 599.87 667.207 605.247 667.207 608.711C667.207 611.354 668.278 612.676 670.42 612.676C673.792 612.676 678.008 608.073 683.066 598.867C684.069 597.044 685.026 594.971 685.938 592.646C685.938 590.596 686.416 587.36 687.373 582.939C688.649 579.886 690.107 578.359 691.748 578.359C692.979 578.359 693.594 579.02 693.594 580.342C693.594 581.709 692.819 584.079 691.27 587.451C689.72 590.824 688.945 592.897 688.945 593.672C688.945 597.819 690.791 599.893 694.482 599.893C697.809 599.893 702.435 596.497 708.359 589.707C708.542 589.479 708.883 589.069 709.385 588.477L710.615 589.57L708.906 591.758C707.129 594.036 705.124 596.156 702.891 598.115C699.883 600.758 696.898 602.08 693.936 602.08C690.882 602.08 688.831 600.69 687.783 597.91C687.692 597.637 687.464 597.34 687.1 597.021C684.867 600.439 682.679 603.652 680.537 606.66C676.8 611.947 673.451 614.59 670.488 614.59C666.341 614.59 664.268 611.24 664.268 604.541C664.268 597.751 667.389 588.317 673.633 576.24C678.372 567.035 682.428 559.743 685.801 554.365C686.895 552.542 688.923 549.284 691.885 544.59C700.088 531.738 706.445 525.312 710.957 525.312C713.509 525.312 714.785 526.885 714.785 530.029ZM712.803 530.303C712.803 528.298 712.051 527.295 710.547 527.295C708.359 527.295 705.488 530.12 701.934 535.771C701.113 537.23 699.404 540.192 696.807 544.658C696.077 545.798 694.779 547.962 692.91 551.152C689.902 556.348 686.211 563.275 681.836 571.934C679.603 576.354 678.327 579.225 678.008 580.547C690.677 568.971 700.133 557.852 706.377 547.188C710.661 539.896 712.803 534.268 712.803 530.303ZM754.57 591.074C753.021 593.717 751.676 595.814 750.537 597.363C741.969 608.984 735.475 614.795 731.055 614.795C728.001 614.795 726.156 613.314 725.518 610.352C724.834 607.161 724.857 603.561 725.586 599.551C724.902 600.553 723.535 602.445 721.484 605.225C716.562 611.468 712.507 614.59 709.316 614.59C705.534 614.59 703.643 611.787 703.643 606.182C703.643 600.667 706.263 593.695 711.504 585.264C713.874 581.481 716.745 577.129 720.117 572.207C721.667 572.07 723.672 571.82 726.133 571.455L715.127 589.775C709.476 599.163 706.65 605.589 706.65 609.053C706.65 611.514 707.516 612.744 709.248 612.744C711.846 612.744 715.833 609.144 721.211 601.943C724.355 597.751 727.227 593.398 729.824 588.887L736.592 577.197C737.458 575.739 738.597 573.665 740.01 570.977C741.514 570.977 742.653 570.931 743.428 570.84C743.975 570.794 744.84 570.521 746.025 570.02L746.641 570.225L734.473 591.279C732.65 594.424 730.69 598.047 728.594 602.148C727.591 604.108 727.09 606.182 727.09 608.369C727.09 611.331 728.343 612.812 730.85 612.812C734.587 612.812 740.215 607.799 747.734 597.773C748.691 596.497 750.56 594.014 753.34 590.322C753.704 590.596 754.115 590.846 754.57 591.074ZM775.146 550.605C775.146 551.745 774.714 552.93 773.848 554.16C772.982 555.345 772.002 555.938 770.908 555.938C769.222 555.938 768.379 554.935 768.379 552.93C768.379 551.745 768.812 550.628 769.678 549.58C770.589 548.532 771.615 548.008 772.754 548.008C774.349 548.008 775.146 548.874 775.146 550.605ZM778.359 590.117L777.266 591.689C766.647 606.956 758.991 614.59 754.297 614.59C752.109 614.59 750.4 613.587 749.17 611.582C748.122 609.896 747.598 607.891 747.598 605.566C747.598 600.508 751.198 591.462 758.398 578.428L759.492 576.445C760.312 574.941 761.429 573.096 762.842 570.908C763.981 570.68 765.964 570.042 768.789 568.994L769.199 569.131C767.969 570.954 765.895 574.531 762.979 579.863C761.657 582.37 759.128 587.178 755.391 594.287C752.109 600.485 750.469 604.883 750.469 607.48C750.469 610.762 751.836 612.402 754.57 612.402C757.715 612.402 761.93 609.144 767.217 602.627C767.718 602.035 770.977 597.773 776.992 589.844L778.359 590.117ZM825.596 521.143C825.596 525.381 822.77 532.65 817.119 542.949C813.291 549.922 809.417 556.234 805.498 561.885C798.89 571.41 790.983 581.436 781.777 591.963C781.458 592.327 780.911 593.558 780.137 595.654C778.451 600.257 777.607 603.926 777.607 606.66C777.607 610.534 779.385 612.471 782.939 612.471C786.813 612.471 791.826 609.167 797.979 602.559C798.799 601.693 802.65 597.295 809.531 589.365C809.714 589.137 810.101 588.682 810.693 587.998C810.967 588.226 811.423 588.613 812.061 589.16C808.141 594.857 803.63 600.166 798.525 605.088C791.917 611.468 786.54 614.658 782.393 614.658C779.521 614.658 777.311 613.291 775.762 610.557C774.531 608.415 773.916 606.022 773.916 603.379C773.916 599.414 774.531 595.7 775.762 592.236C781.048 577.38 788.773 561.224 798.936 543.77C809.6 525.449 817.233 516.289 821.836 516.289C824.342 516.289 825.596 517.907 825.596 521.143ZM823.271 521.689C823.271 519.456 822.656 518.34 821.426 518.34C818.737 518.34 813.04 526.771 804.336 543.633C800.417 551.198 796.133 559.971 791.484 569.951C787.383 578.747 785.332 583.372 785.332 583.828C785.378 583.965 785.469 584.102 785.605 584.238C795.814 572.663 805.293 559.128 814.043 543.633C820.195 532.741 823.271 525.426 823.271 521.689ZM865.449 533.242C863.079 537.572 858.089 546.846 850.479 561.064C849.521 563.024 847.653 566.738 844.873 572.207C842.412 576.855 837.809 585.833 831.064 599.141C830.199 600.872 829.766 602.946 829.766 605.361C829.766 608.688 830.814 610.352 832.91 610.352C834.551 610.352 837.559 607.959 841.934 603.174C843.346 601.624 845.42 598.867 848.154 594.902C850.752 591.211 852.894 588.522 854.58 586.836C854.762 586.973 855.264 587.269 856.084 587.725C855.081 589.456 851.367 594.561 844.941 603.037C843.802 604.541 842.663 605.908 841.523 607.139C838.197 610.739 835.303 612.539 832.842 612.539C829.333 612.539 827.487 609.531 827.305 603.516C827.259 602.24 827.282 600.827 827.373 599.277C826.006 601.237 824.684 603.06 823.408 604.746C818.35 611.263 814.385 614.521 811.514 614.521C806.956 614.521 804.678 610.921 804.678 603.721C804.678 596.52 807.207 589.342 812.266 582.188C819.648 571.751 826.188 566.533 831.885 566.533C835.257 566.533 837.171 568.63 837.627 572.822C837.673 573.05 837.695 573.438 837.695 573.984L859.502 534.473C860.869 534.245 862.692 533.789 864.971 533.105C865.153 533.151 865.312 533.197 865.449 533.242ZM835.303 573.711C835.303 570.293 834.277 568.584 832.227 568.584C830.404 568.584 827.646 570.863 823.955 575.42C821.54 578.382 819.785 580.798 818.691 582.666C816.549 586.312 814.362 590.391 812.129 594.902C809.303 600.599 807.891 604.769 807.891 607.412C807.891 610.602 809.007 612.197 811.24 612.197C813.428 612.197 816.481 609.782 820.4 604.951C825.186 599.027 829.287 592.1 832.705 584.17C834.437 580.114 835.303 576.628 835.303 573.711ZM948.711 591.143C943.379 598.936 938.298 602.832 933.467 602.832C931.598 602.832 929.889 601.738 928.34 599.551C927.201 601.374 925.765 603.516 924.033 605.977C919.43 612.493 915.443 615.752 912.07 615.752C907.513 615.752 905.234 612.129 905.234 604.883C905.234 604.017 905.417 602.308 905.781 599.756C904.368 601.396 902.842 603.333 901.201 605.566C897.054 611.217 893.34 614.043 890.059 614.043C886.276 614.043 884.385 611.24 884.385 605.635C884.385 599.984 886.299 593.923 890.127 587.451C891.357 585.355 894.867 579.886 900.654 571.045L902.842 567.217L904.893 566.875C906.26 567.969 906.647 568.516 906.055 568.516C904.642 568.516 901.68 573.392 897.168 583.145C890.605 597.135 887.324 605.452 887.324 608.096C887.324 610.739 888.213 612.061 889.99 612.061C894.183 612.061 899.811 605.863 906.875 593.467L919.248 571.729C920.798 571.546 922.939 571.25 925.674 570.84C925.492 571.204 925.286 571.637 925.059 572.139L913.574 592.236C909.928 598.617 908.105 603.766 908.105 607.686C908.105 611.696 909.382 613.701 911.934 613.701C914.577 613.701 917.539 611.605 920.82 607.412C923.372 604.176 925.15 601.237 926.152 598.594C926.882 596.725 927.246 595.723 927.246 595.586C927.246 591.165 928.499 585.924 931.006 579.863C932.829 575.443 934.583 573.232 936.27 573.232C937.227 573.232 937.705 573.984 937.705 575.488C937.705 577.493 936.338 581.481 933.604 587.451C930.915 593.376 929.57 596.93 929.57 598.115C930.391 600.12 931.644 601.123 933.33 601.123C935.837 601.123 938.411 599.915 941.055 597.5C941.693 596.908 943.857 594.492 947.549 590.254C948.05 590.482 948.438 590.778 948.711 591.143ZM968.74 550.605C968.74 551.745 968.307 552.93 967.441 554.16C966.576 555.345 965.596 555.938 964.502 555.938C962.816 555.938 961.973 554.935 961.973 552.93C961.973 551.745 962.406 550.628 963.271 549.58C964.183 548.532 965.208 548.008 966.348 548.008C967.943 548.008 968.74 548.874 968.74 550.605ZM971.953 590.117L970.859 591.689C960.241 606.956 952.585 614.59 947.891 614.59C945.703 614.59 943.994 613.587 942.764 611.582C941.715 609.896 941.191 607.891 941.191 605.566C941.191 600.508 944.792 591.462 951.992 578.428L953.086 576.445C953.906 574.941 955.023 573.096 956.436 570.908C957.575 570.68 959.557 570.042 962.383 568.994L962.793 569.131C961.562 570.954 959.489 574.531 956.572 579.863C955.251 582.37 952.721 587.178 948.984 594.287C945.703 600.485 944.062 604.883 944.062 607.48C944.062 610.762 945.43 612.402 948.164 612.402C951.309 612.402 955.524 609.144 960.811 602.627C961.312 602.035 964.57 597.773 970.586 589.844L971.953 590.117ZM1004.49 538.779C996.973 552.77 991.481 562.751 988.018 568.721C989.476 569.04 991.048 569.199 992.734 569.199C994.831 569.199 996.243 569.062 996.973 568.789C998.249 568.288 998.932 568.037 999.023 568.037C999.57 568.037 999.844 568.333 999.844 568.926C999.844 570.566 996.95 571.387 991.162 571.387C989.932 571.387 988.519 571.25 986.924 570.977C985.557 573.392 981.523 580.57 974.824 592.51C974.049 593.831 972.682 596.247 970.723 599.756C969.173 602.536 968.398 605.065 968.398 607.344C968.398 611.126 969.811 613.018 972.637 613.018C975.736 613.018 979.495 610.488 983.916 605.43C984.281 605.02 987.038 601.715 992.188 595.518C992.37 595.335 993.783 593.604 996.426 590.322C996.699 590.459 997.132 590.732 997.725 591.143C992.393 598.206 986.855 604.655 981.113 610.488C978.242 613.405 975.417 614.863 972.637 614.863C968.125 614.863 965.869 611.81 965.869 605.703C965.869 600.736 968.49 593.33 973.73 583.486C974.642 581.755 977.035 577.539 980.908 570.84C978.63 570.293 976.852 570.02 975.576 570.02C975.257 570.02 974.779 570.065 974.141 570.156C973.503 570.202 973.024 570.225 972.705 570.225C971.839 570.225 971.406 569.974 971.406 569.473C971.406 568.014 972.751 567.376 975.439 567.559L982.207 568.037C985.625 562.067 991.094 552.725 998.613 540.01C1001.71 539.235 1003.42 538.825 1003.74 538.779H1004.49ZM1045.44 585.879C1045.21 586.289 1044.82 586.882 1044.28 587.656C1040.04 593.535 1035.82 599.049 1031.63 604.199C1025.84 611.263 1020.69 614.795 1016.18 614.795C1012.26 614.795 1010.3 612.448 1010.3 607.754C1010.3 603.288 1012.95 596.771 1018.23 588.203C1023.56 579.59 1026.23 575.033 1026.23 574.531C1026.23 573.073 1025.5 572.344 1024.04 572.344C1022.22 572.344 1019.17 574.326 1014.88 578.291C1008.59 584.124 1003.06 590.345 998.271 596.953C997.588 597.865 994.329 602.992 988.496 612.334L983.164 613.018L983.369 612.334C983.369 612.015 984.554 609.873 986.924 605.908C989.932 600.85 993.418 594.606 997.383 587.178L1009.48 564.414C1015.41 553.249 1021.67 543.564 1028.28 535.361C1033.75 528.571 1037.97 525.176 1040.93 525.176C1043.3 525.176 1044.48 526.566 1044.48 529.346C1044.48 531.624 1042.59 536.136 1038.81 542.881C1035.16 549.352 1030.65 555.368 1025.27 560.928C1022.72 563.48 1018.16 568.105 1011.6 574.805C1010.23 576.217 1008.43 578.177 1006.2 580.684C1004.97 582.689 1003.35 585.469 1001.35 589.023L1009.69 580.41C1016.11 573.757 1020.76 570.43 1023.63 570.43C1027.05 570.43 1028.76 572.458 1028.76 576.514C1028.76 579.749 1026.12 585.651 1020.83 594.219C1015.59 602.786 1012.97 607.777 1012.97 609.189C1012.97 611.559 1014.09 612.744 1016.32 612.744C1020.74 612.744 1027.8 606.432 1037.51 593.809L1043.39 586.152C1043.53 586.016 1043.75 585.674 1044.07 585.127L1045.44 585.879ZM1042.57 530.029C1042.57 528.161 1041.98 527.227 1040.79 527.227C1037.46 527.227 1032.36 532.9 1025.48 544.248C1020.6 552.314 1016.75 559.242 1013.93 565.029C1013.52 565.85 1012.29 568.516 1010.23 573.027L1012.49 570.908C1014.36 569.131 1017.82 565.758 1022.88 560.791C1029.44 554.137 1034.87 546.732 1039.15 538.574C1041.43 534.245 1042.57 531.396 1042.57 530.029ZM1123.78 521.143C1123.78 525.381 1120.95 532.65 1115.3 542.949C1111.47 549.922 1107.6 556.234 1103.68 561.885C1097.07 571.41 1089.17 581.436 1079.96 591.963C1079.64 592.327 1079.1 593.558 1078.32 595.654C1076.63 600.257 1075.79 603.926 1075.79 606.66C1075.79 610.534 1077.57 612.471 1081.12 612.471C1085 612.471 1090.01 609.167 1096.16 602.559C1096.98 601.693 1100.83 597.295 1107.71 589.365C1107.9 589.137 1108.28 588.682 1108.88 587.998C1109.15 588.226 1109.61 588.613 1110.24 589.16C1106.32 594.857 1101.81 600.166 1096.71 605.088C1090.1 611.468 1084.72 614.658 1080.58 614.658C1077.71 614.658 1075.49 613.291 1073.95 610.557C1072.71 608.415 1072.1 606.022 1072.1 603.379C1072.1 599.414 1072.71 595.7 1073.95 592.236C1079.23 577.38 1086.96 561.224 1097.12 543.77C1107.78 525.449 1115.42 516.289 1120.02 516.289C1122.53 516.289 1123.78 517.907 1123.78 521.143ZM1121.46 521.689C1121.46 519.456 1120.84 518.34 1119.61 518.34C1116.92 518.34 1111.22 526.771 1102.52 543.633C1098.6 551.198 1094.32 559.971 1089.67 569.951C1085.57 578.747 1083.52 583.372 1083.52 583.828C1083.56 583.965 1083.65 584.102 1083.79 584.238C1094 572.663 1103.48 559.128 1112.23 543.633C1118.38 532.741 1121.46 525.426 1121.46 521.689ZM1147.23 590.254C1146.41 591.576 1144.77 593.49 1142.3 595.996C1139.3 599.095 1136.18 600.645 1132.94 600.645C1131.16 600.645 1129.75 600.28 1128.7 599.551L1126.86 597.979C1126.04 599.255 1124.76 601.077 1123.03 603.447C1120.61 606.774 1118.65 609.189 1117.15 610.693C1114.51 613.337 1112 614.658 1109.63 614.658C1107.3 614.658 1105.53 613.451 1104.3 611.035C1103.29 609.076 1102.79 606.82 1102.79 604.268C1102.79 598.617 1104.71 592.327 1108.54 585.4C1112.18 578.747 1116.37 573.665 1121.11 570.156C1124.3 567.786 1127.06 566.602 1129.38 566.602C1133.26 566.602 1135.2 569.199 1135.2 574.395C1135.2 576.673 1134.47 580.046 1133.01 584.512C1131.73 588.431 1130.43 591.576 1129.11 593.945C1128.61 594.857 1128.36 595.586 1128.36 596.133C1128.36 596.816 1128.95 597.477 1130.14 598.115C1131.18 598.708 1132.1 599.004 1132.87 599.004C1135.42 599.004 1137.86 597.956 1140.19 595.859C1140.6 595.495 1142.56 593.353 1146.06 589.434C1146.29 589.57 1146.68 589.844 1147.23 590.254ZM1133.28 574.6C1133.28 570.771 1132.12 568.857 1129.79 568.857C1126.1 568.857 1121.25 574.212 1115.23 584.922C1109.49 595.176 1106.62 602.673 1106.62 607.412C1106.62 610.967 1107.76 612.744 1110.04 612.744C1112.14 612.744 1115.1 610.397 1118.93 605.703C1122.12 601.875 1124.39 598.548 1125.76 595.723C1125.35 594.219 1125.15 592.806 1125.15 591.484C1125.15 588.158 1125.78 585.811 1127.06 584.443C1127.93 583.486 1128.56 583.008 1128.97 583.008C1129.34 583.008 1130.02 583.577 1131.03 584.717C1132.53 580.205 1133.28 576.833 1133.28 574.6ZM1187.22 588.955C1182.89 594.105 1179.83 597.09 1178.06 597.91C1175.64 599.004 1173.8 599.551 1172.52 599.551C1170.74 599.551 1169.08 598.867 1167.53 597.5L1160.01 608.506C1157.09 612.744 1153.83 614.863 1150.23 614.863C1145.18 614.863 1142.65 611.104 1142.65 603.584C1142.65 598.981 1144.26 593.216 1147.5 586.289C1149.82 582.324 1153.24 576.331 1157.75 568.311L1164.04 567.422L1162.74 569.814C1160.83 573.187 1157.41 579.294 1152.49 588.135C1147.75 596.839 1145.38 603.197 1145.38 607.207C1145.38 608.711 1145.86 610.033 1146.82 611.172C1147.82 612.311 1149.05 612.881 1150.51 612.881C1151.69 612.881 1152.92 612.38 1154.2 611.377C1159.35 607.367 1163.38 601.624 1166.3 594.15V591.758C1166.44 587.656 1168.03 582.689 1171.08 576.855C1172.63 573.893 1174.07 572.412 1175.39 572.412C1176.3 572.412 1176.76 573.027 1176.76 574.258C1176.76 576.035 1175.44 579.886 1172.79 585.811L1168.83 594.697C1168.83 596.794 1170.01 597.842 1172.38 597.842C1174.93 597.842 1177.53 596.589 1180.18 594.082C1180.81 593.49 1182.71 591.53 1185.85 588.203C1186.17 588.385 1186.62 588.636 1187.22 588.955ZM1218.18 590.049L1216.13 592.715C1214.58 594.766 1213.01 596.702 1211.42 598.525C1202.21 609.281 1194.53 614.658 1188.38 614.658C1182.55 614.658 1179.63 611.058 1179.63 603.857C1179.63 594.743 1184.71 584.535 1194.87 573.232C1200.02 567.536 1204.15 564.688 1207.25 564.688C1209.75 564.688 1211.01 566.146 1211.01 569.062C1211.01 572.48 1208.96 576.4 1204.85 580.82C1201.25 584.694 1197.47 587.656 1193.51 589.707C1192.28 590.345 1190.68 591.143 1188.72 592.1C1188.36 592.692 1187.35 594.766 1185.71 598.32C1184.3 601.374 1183.59 604.199 1183.59 606.797C1183.59 610.397 1185.28 612.197 1188.65 612.197C1194.17 612.197 1201.94 606.41 1211.96 594.834C1213.15 593.467 1214.79 591.53 1216.88 589.023C1216.98 589.16 1217.41 589.502 1218.18 590.049ZM1208.34 569.404C1208.34 567.855 1207.75 567.08 1206.56 567.08C1204.51 567.08 1200.05 572.708 1193.16 583.965L1190.36 588.545L1190.63 588.75C1193.92 587.428 1197.58 584.694 1201.64 580.547C1206.11 575.99 1208.34 572.275 1208.34 569.404Z" fill="black"/>
<line x1="744.759" y1="180.027" x2="744.759" y2="1.52588e-05" stroke="#927B6D" stroke-width="10"/>
<line x1="542.438" y1="179.31" x2="542.438" y2="89.9956" stroke="#927B6D" stroke-width="10"/>
<line x1="935.182" y1="175.711" x2="935.182" y2="86.397" stroke="#927B6D" stroke-width="10"/>
<line x1="540.582" y1="173.913" x2="734.287" y2="173.913" stroke="#927B6D" stroke-width="10"/>
<path d="M510 104.036L732.831 23.3997" stroke="#927B6D" stroke-width="10"/>
<path d="M978.831 103.637L756 23" stroke="#927B6D" stroke-width="10"/>
</svg>
